<svg xmlns="http://www.w3.org/2000/svg" xmlns:xlink="http://www.w3.org/1999/xlink" width="500" zoomAndPan="magnify" viewBox="0 0 375 374.999991" height="500" preserveAspectRatio="xMidYMid meet" version="1.0"><defs><g/><clipPath id="a3b12279d0"><path d="M 133 67.875 L 262.5 67.875 L 262.5 101 L 133 101 Z M 133 67.875 " clip-rule="nonzero"/></clipPath><clipPath id="0f32e7b2b1"><path d="M 112.5 154 L 242 154 L 242 187.875 L 112.5 187.875 Z M 112.5 154 " clip-rule="nonzero"/></clipPath></defs><g clip-path="url(#a3b12279d0)"><path fill="#03a1fe" d="M 157.796875 67.875 L 262.460938 67.875 L 238.039062 100.917969 L 133.375 100.917969 Z M 157.796875 67.875 " fill-opacity="1" fill-rule="evenodd"/></g><path fill="#006ab3" d="M 133.375 100.917969 L 185.707031 100.917969 L 159.226562 136.59375 L 136.230469 104.871094 Z M 133.375 100.917969 " fill-opacity="1" fill-rule="evenodd"/><g clip-path="url(#0f32e7b2b1)"><path fill="#03a1fe" d="M 217.210938 187.5 L 112.550781 187.5 L 137.023438 154.457031 L 241.6875 154.457031 Z M 217.210938 187.5 " fill-opacity="1" fill-rule="evenodd"/></g><path fill="#006ab3" d="M 241.6875 154.457031 L 189.355469 154.457031 L 215.785156 118.78125 L 238.832031 150.503906 Z M 241.6875 154.457031 " fill-opacity="1" fill-rule="evenodd"/><g fill="#ffffff" fill-opacity="1"><g transform="translate(40.476564, 252.34362)"><g><path d="M 14.5625 0.328125 C 12.28125 0.328125 10.222656 -0.0625 8.390625 -0.84375 C 6.554688 -1.625 5.101562 -2.75 4.03125 -4.21875 C 2.96875 -5.695312 2.421875 -7.441406 2.390625 -9.453125 L 9.453125 -9.453125 C 9.546875 -8.097656 10.019531 -7.03125 10.875 -6.25 C 11.738281 -5.46875 12.921875 -5.078125 14.421875 -5.078125 C 15.960938 -5.078125 17.171875 -5.441406 18.046875 -6.171875 C 18.921875 -6.910156 19.359375 -7.878906 19.359375 -9.078125 C 19.359375 -10.046875 19.0625 -10.84375 18.46875 -11.46875 C 17.875 -12.09375 17.128906 -12.582031 16.234375 -12.9375 C 15.347656 -13.300781 14.117188 -13.703125 12.546875 -14.140625 C 10.421875 -14.773438 8.691406 -15.394531 7.359375 -16 C 6.023438 -16.613281 4.878906 -17.539062 3.921875 -18.78125 C 2.960938 -20.019531 2.484375 -21.671875 2.484375 -23.734375 C 2.484375 -25.679688 2.96875 -27.375 3.9375 -28.8125 C 4.914062 -30.25 6.28125 -31.351562 8.03125 -32.125 C 9.789062 -32.894531 11.796875 -33.28125 14.046875 -33.28125 C 17.429688 -33.28125 20.179688 -32.457031 22.296875 -30.8125 C 24.410156 -29.164062 25.578125 -26.867188 25.796875 -23.921875 L 18.5625 -23.921875 C 18.5 -25.046875 18.019531 -25.976562 17.125 -26.71875 C 16.238281 -27.457031 15.054688 -27.828125 13.578125 -27.828125 C 12.296875 -27.828125 11.269531 -27.492188 10.5 -26.828125 C 9.738281 -26.171875 9.359375 -25.21875 9.359375 -23.96875 C 9.359375 -23.09375 9.644531 -22.363281 10.21875 -21.78125 C 10.800781 -21.207031 11.519531 -20.738281 12.375 -20.375 C 13.238281 -20.007812 14.457031 -19.59375 16.03125 -19.125 C 18.15625 -18.5 19.890625 -17.875 21.234375 -17.25 C 22.585938 -16.625 23.75 -15.679688 24.71875 -14.421875 C 25.6875 -13.171875 26.171875 -11.53125 26.171875 -9.5 C 26.171875 -7.738281 25.71875 -6.101562 24.8125 -4.59375 C 23.90625 -3.09375 22.570312 -1.894531 20.8125 -1 C 19.0625 -0.113281 16.976562 0.328125 14.5625 0.328125 Z M 14.5625 0.328125 "/></g></g></g><g fill="#ffffff" fill-opacity="1"><g transform="translate(69.094768, 252.34362)"><g><path d="M 18.46875 0.328125 C 15.394531 0.328125 12.570312 -0.390625 10 -1.828125 C 7.4375 -3.273438 5.398438 -5.273438 3.890625 -7.828125 C 2.390625 -10.378906 1.640625 -13.269531 1.640625 -16.5 C 1.640625 -19.695312 2.390625 -22.570312 3.890625 -25.125 C 5.398438 -27.675781 7.4375 -29.671875 10 -31.109375 C 12.570312 -32.554688 15.394531 -33.28125 18.46875 -33.28125 C 21.570312 -33.28125 24.398438 -32.554688 26.953125 -31.109375 C 29.503906 -29.671875 31.523438 -27.675781 33.015625 -25.125 C 34.503906 -22.570312 35.25 -19.695312 35.25 -16.5 C 35.25 -13.269531 34.503906 -10.378906 33.015625 -7.828125 C 31.523438 -5.273438 29.492188 -3.273438 26.921875 -1.828125 C 24.359375 -0.390625 21.539062 0.328125 18.46875 0.328125 Z M 18.46875 -5.546875 C 20.445312 -5.546875 22.1875 -5.988281 23.6875 -6.875 C 25.1875 -7.769531 26.359375 -9.046875 27.203125 -10.703125 C 28.054688 -12.367188 28.484375 -14.300781 28.484375 -16.5 C 28.484375 -18.6875 28.054688 -20.601562 27.203125 -22.25 C 26.359375 -23.894531 25.1875 -25.15625 23.6875 -26.03125 C 22.1875 -26.914062 20.445312 -27.359375 18.46875 -27.359375 C 16.5 -27.359375 14.753906 -26.914062 13.234375 -26.03125 C 11.710938 -25.15625 10.523438 -23.894531 9.671875 -22.25 C 8.828125 -20.601562 8.40625 -18.6875 8.40625 -16.5 C 8.40625 -14.300781 8.828125 -12.367188 9.671875 -10.703125 C 10.523438 -9.046875 11.710938 -7.769531 13.234375 -6.875 C 14.753906 -5.988281 16.5 -5.546875 18.46875 -5.546875 Z M 18.46875 -5.546875 "/></g></g></g><g fill="#ffffff" fill-opacity="1"><g transform="translate(105.983583, 252.34362)"><g><path d="M 9.828125 -5.21875 L 20.640625 -5.21875 L 20.640625 0 L 3.25 0 L 3.25 -32.8125 L 9.828125 -32.8125 Z M 9.828125 -5.21875 "/></g></g></g><g fill="#ffffff" fill-opacity="1"><g transform="translate(127.552971, 252.34362)"><g><path d="M 9.734375 -32.8125 L 9.734375 -12.5 C 9.734375 -10.28125 10.3125 -8.582031 11.46875 -7.40625 C 12.625 -6.226562 14.253906 -5.640625 16.359375 -5.640625 C 18.484375 -5.640625 20.125 -6.226562 21.28125 -7.40625 C 22.445312 -8.582031 23.03125 -10.28125 23.03125 -12.5 L 23.03125 -32.8125 L 29.65625 -32.8125 L 29.65625 -12.546875 C 29.65625 -9.753906 29.050781 -7.394531 27.84375 -5.46875 C 26.632812 -3.539062 25.019531 -2.09375 23 -1.125 C 20.976562 -0.15625 18.734375 0.328125 16.265625 0.328125 C 13.816406 0.328125 11.597656 -0.15625 9.609375 -1.125 C 7.617188 -2.09375 6.046875 -3.539062 4.890625 -5.46875 C 3.734375 -7.394531 3.15625 -9.753906 3.15625 -12.546875 L 3.15625 -32.8125 Z M 9.734375 -32.8125 "/></g></g></g><g fill="#ffffff" fill-opacity="1"><g transform="translate(160.306474, 252.34362)"><g><path d="M 1.640625 -16.453125 C 1.640625 -19.679688 2.367188 -22.570312 3.828125 -25.125 C 5.285156 -27.675781 7.273438 -29.664062 9.796875 -31.09375 C 12.316406 -32.519531 15.144531 -33.234375 18.28125 -33.234375 C 21.945312 -33.234375 25.15625 -32.289062 27.90625 -30.40625 C 30.664062 -28.53125 32.597656 -25.929688 33.703125 -22.609375 L 26.125 -22.609375 C 25.375 -24.171875 24.316406 -25.34375 22.953125 -26.125 C 21.597656 -26.914062 20.023438 -27.3125 18.234375 -27.3125 C 16.328125 -27.3125 14.628906 -26.863281 13.140625 -25.96875 C 11.648438 -25.070312 10.488281 -23.804688 9.65625 -22.171875 C 8.820312 -20.546875 8.40625 -18.640625 8.40625 -16.453125 C 8.40625 -14.285156 8.820312 -12.378906 9.65625 -10.734375 C 10.488281 -9.085938 11.648438 -7.816406 13.140625 -6.921875 C 14.628906 -6.035156 16.328125 -5.59375 18.234375 -5.59375 C 20.023438 -5.59375 21.597656 -5.988281 22.953125 -6.78125 C 24.316406 -7.582031 25.375 -8.769531 26.125 -10.34375 L 33.703125 -10.34375 C 32.597656 -6.988281 30.675781 -4.378906 27.9375 -2.515625 C 25.195312 -0.648438 21.976562 0.28125 18.28125 0.28125 C 15.144531 0.28125 12.316406 -0.429688 9.796875 -1.859375 C 7.273438 -3.285156 5.285156 -5.265625 3.828125 -7.796875 C 2.367188 -10.335938 1.640625 -13.222656 1.640625 -16.453125 Z M 1.640625 -16.453125 "/></g></g></g><g fill="#ffffff" fill-opacity="1"><g transform="translate(196.396423, 252.34362)"><g><path d="M 9.828125 -32.8125 L 9.828125 0 L 3.25 0 L 3.25 -32.8125 Z M 9.828125 -32.8125 "/></g></g></g><g fill="#ffffff" fill-opacity="1"><g transform="translate(209.46023, 252.34362)"><g><path d="M 18.46875 0.328125 C 15.394531 0.328125 12.570312 -0.390625 10 -1.828125 C 7.4375 -3.273438 5.398438 -5.273438 3.890625 -7.828125 C 2.390625 -10.378906 1.640625 -13.269531 1.640625 -16.5 C 1.640625 -19.695312 2.390625 -22.570312 3.890625 -25.125 C 5.398438 -27.675781 7.4375 -29.671875 10 -31.109375 C 12.570312 -32.554688 15.394531 -33.28125 18.46875 -33.28125 C 21.570312 -33.28125 24.398438 -32.554688 26.953125 -31.109375 C 29.503906 -29.671875 31.523438 -27.675781 33.015625 -25.125 C 34.503906 -22.570312 35.25 -19.695312 35.25 -16.5 C 35.25 -13.269531 34.503906 -10.378906 33.015625 -7.828125 C 31.523438 -5.273438 29.492188 -3.273438 26.921875 -1.828125 C 24.359375 -0.390625 21.539062 0.328125 18.46875 0.328125 Z M 18.46875 -5.546875 C 20.445312 -5.546875 22.1875 -5.988281 23.6875 -6.875 C 25.1875 -7.769531 26.359375 -9.046875 27.203125 -10.703125 C 28.054688 -12.367188 28.484375 -14.300781 28.484375 -16.5 C 28.484375 -18.6875 28.054688 -20.601562 27.203125 -22.25 C 26.359375 -23.894531 25.1875 -25.15625 23.6875 -26.03125 C 22.1875 -26.914062 20.445312 -27.359375 18.46875 -27.359375 C 16.5 -27.359375 14.753906 -26.914062 13.234375 -26.03125 C 11.710938 -25.15625 10.523438 -23.894531 9.671875 -22.25 C 8.828125 -20.601562 8.40625 -18.6875 8.40625 -16.5 C 8.40625 -14.300781 8.828125 -12.367188 9.671875 -10.703125 C 10.523438 -9.046875 11.710938 -7.769531 13.234375 -6.875 C 14.753906 -5.988281 16.5 -5.546875 18.46875 -5.546875 Z M 18.46875 -5.546875 "/></g></g></g><g fill="#ffffff" fill-opacity="1"><g transform="translate(246.349033, 252.34362)"><g><path d="M 31.296875 0 L 24.71875 0 L 9.828125 -22.515625 L 9.828125 0 L 3.25 0 L 3.25 -32.859375 L 9.828125 -32.859375 L 24.71875 -10.296875 L 24.71875 -32.859375 L 31.296875 -32.859375 Z M 31.296875 0 "/></g></g></g><g fill="#ffffff" fill-opacity="1"><g transform="translate(280.888261, 252.34362)"><g><path d="M 9.828125 -27.5 L 9.828125 -19.265625 L 20.875 -19.265625 L 20.875 -14.046875 L 9.828125 -14.046875 L 9.828125 -5.359375 L 22.28125 -5.359375 L 22.28125 0 L 3.25 0 L 3.25 -32.859375 L 22.28125 -32.859375 L 22.28125 -27.5 Z M 9.828125 -27.5 "/></g></g></g><g fill="#ffffff" fill-opacity="1"><g transform="translate(305.888061, 252.34362)"><g><path d="M 14.5625 0.328125 C 12.28125 0.328125 10.222656 -0.0625 8.390625 -0.84375 C 6.554688 -1.625 5.101562 -2.75 4.03125 -4.21875 C 2.96875 -5.695312 2.421875 -7.441406 2.390625 -9.453125 L 9.453125 -9.453125 C 9.546875 -8.097656 10.019531 -7.03125 10.875 -6.25 C 11.738281 -5.46875 12.921875 -5.078125 14.421875 -5.078125 C 15.960938 -5.078125 17.171875 -5.441406 18.046875 -6.171875 C 18.921875 -6.910156 19.359375 -7.878906 19.359375 -9.078125 C 19.359375 -10.046875 19.0625 -10.84375 18.46875 -11.46875 C 17.875 -12.09375 17.128906 -12.582031 16.234375 -12.9375 C 15.347656 -13.300781 14.117188 -13.703125 12.546875 -14.140625 C 10.421875 -14.773438 8.691406 -15.394531 7.359375 -16 C 6.023438 -16.613281 4.878906 -17.539062 3.921875 -18.78125 C 2.960938 -20.019531 2.484375 -21.671875 2.484375 -23.734375 C 2.484375 -25.679688 2.96875 -27.375 3.9375 -28.8125 C 4.914062 -30.25 6.28125 -31.351562 8.03125 -32.125 C 9.789062 -32.894531 11.796875 -33.28125 14.046875 -33.28125 C 17.429688 -33.28125 20.179688 -32.457031 22.296875 -30.8125 C 24.410156 -29.164062 25.578125 -26.867188 25.796875 -23.921875 L 18.5625 -23.921875 C 18.5 -25.046875 18.019531 -25.976562 17.125 -26.71875 C 16.238281 -27.457031 15.054688 -27.828125 13.578125 -27.828125 C 12.296875 -27.828125 11.269531 -27.492188 10.5 -26.828125 C 9.738281 -26.171875 9.359375 -25.21875 9.359375 -23.96875 C 9.359375 -23.09375 9.644531 -22.363281 10.21875 -21.78125 C 10.800781 -21.207031 11.519531 -20.738281 12.375 -20.375 C 13.238281 -20.007812 14.457031 -19.59375 16.03125 -19.125 C 18.15625 -18.5 19.890625 -17.875 21.234375 -17.25 C 22.585938 -16.625 23.75 -15.679688 24.71875 -14.421875 C 25.6875 -13.171875 26.171875 -11.53125 26.171875 -9.5 C 26.171875 -7.738281 25.71875 -6.101562 24.8125 -4.59375 C 23.90625 -3.09375 22.570312 -1.894531 20.8125 -1 C 19.0625 -0.113281 16.976562 0.328125 14.5625 0.328125 Z M 14.5625 0.328125 "/></g></g></g><g fill="#03a1fe" fill-opacity="1"><g transform="translate(161.814838, 284.643644)"><g><path d="M 19.6875 -12.59375 L 15.484375 0 L 13.59375 0 L 10.15625 -10.0625 L 6.71875 0 L 4.78125 0 L 0.578125 -12.59375 L 2.4375 -12.59375 L 5.828125 -2.359375 L 9.375 -12.59375 L 11.03125 -12.59375 L 14.515625 -2.296875 L 17.984375 -12.59375 Z M 19.6875 -12.59375 "/></g></g></g><g fill="#03a1fe" fill-opacity="1"><g transform="translate(184.782774, 284.643644)"><g><path d="M 11.03125 -1.5625 L 11.03125 0 L 1.890625 0 L 1.890625 -12.59375 L 10.78125 -12.59375 L 10.78125 -11.03125 L 3.6875 -11.03125 L 3.6875 -7.15625 L 10.015625 -7.15625 L 10.015625 -5.640625 L 3.6875 -5.640625 L 3.6875 -1.5625 Z M 11.03125 -1.5625 "/></g></g></g><g fill="#03a1fe" fill-opacity="1"><g transform="translate(199.542733, 284.643644)"><g><path d="M 10.375 -6.53125 C 11.101562 -6.332031 11.675781 -5.960938 12.09375 -5.421875 C 12.507812 -4.890625 12.71875 -4.21875 12.71875 -3.40625 C 12.71875 -2.3125 12.304688 -1.46875 11.484375 -0.875 C 10.671875 -0.289062 9.476562 0 7.90625 0 L 1.890625 0 L 1.890625 -12.59375 L 7.546875 -12.59375 C 8.984375 -12.59375 10.09375 -12.304688 10.875 -11.734375 C 11.664062 -11.160156 12.0625 -10.363281 12.0625 -9.34375 C 12.0625 -8.6875 11.90625 -8.113281 11.59375 -7.625 C 11.289062 -7.144531 10.882812 -6.78125 10.375 -6.53125 Z M 3.6875 -11.140625 L 3.6875 -7.109375 L 7.375 -7.109375 C 8.300781 -7.109375 9.015625 -7.28125 9.515625 -7.625 C 10.015625 -7.96875 10.265625 -8.46875 10.265625 -9.125 C 10.265625 -9.78125 10.015625 -10.28125 9.515625 -10.625 C 9.015625 -10.96875 8.300781 -11.140625 7.375 -11.140625 Z M 7.828125 -1.453125 C 8.847656 -1.453125 9.613281 -1.617188 10.125 -1.953125 C 10.644531 -2.296875 10.90625 -2.828125 10.90625 -3.546875 C 10.90625 -4.953125 9.878906 -5.65625 7.828125 -5.65625 L 3.6875 -5.65625 L 3.6875 -1.453125 Z M 7.828125 -1.453125 "/></g></g></g></svg>